<svg width="28" height="28" viewBox="0 0 28 28" fill="none" xmlns="http://www.w3.org/2000/svg">
<g opacity="0.9">
<path d="M5.82105 15.2756C6.62386 15.1356 7.51273 15.1493 8.13308 15.2484C8.57884 15.3197 8.88284 15.739 8.81214 16.1847C8.74077 16.6308 8.32189 16.935 7.87583 16.8638C7.42738 16.792 6.72037 16.78 6.10226 16.8877C5.79473 16.9414 5.54958 17.0181 5.38165 17.105C5.30905 17.1427 5.26495 17.1774 5.23785 17.2009C5.24504 17.233 5.25393 17.2816 5.2762 17.3447C5.35001 17.5534 5.48988 17.835 5.70122 18.1772C6.00845 18.6745 6.43026 19.2424 6.90436 19.8165C7.83087 18.923 8.72775 18.0402 9.77083 16.9229C9.90111 16.7834 10.0856 16.6258 10.3285 16.5394C10.6048 16.4412 10.9148 16.4529 11.1913 16.6049C11.4331 16.7382 11.5786 16.9407 11.6642 17.0923C11.7537 17.2507 11.8158 17.4236 11.8608 17.5844C12.0337 18.2035 12.0775 19.1071 12.0525 19.9795C12.0269 20.8726 11.9272 21.8342 11.7649 22.6127C11.6845 22.9983 11.5813 23.3705 11.4517 23.6752C11.387 23.8272 11.3051 23.9895 11.1977 24.1338C11.096 24.2703 10.9246 24.4543 10.664 24.5556C10.3831 24.6646 10.1142 24.6326 9.94019 24.5908C9.75608 24.5464 9.58068 24.468 9.4257 24.3862C9.11422 24.2219 8.77337 23.979 8.43346 23.7024C7.92782 23.2907 7.3648 22.7582 6.81169 22.1781C6.24716 22.722 5.65762 23.2938 5.01895 23.9325C4.6996 24.2516 4.18159 24.2514 3.86214 23.9325C3.54286 23.613 3.54291 23.0951 3.86214 22.7756C4.54071 22.0971 5.15055 21.5076 5.72359 20.9557C5.18233 20.3075 4.68469 19.6414 4.31113 19.0368C4.0695 18.6457 3.86122 18.2532 3.73272 17.8896C3.61975 17.5696 3.49824 17.084 3.68159 16.6273C3.87539 16.1456 4.26564 15.8411 4.62909 15.6526C4.99707 15.4621 5.41888 15.3457 5.82105 15.2756ZM21.5099 14.6987C21.8684 14.7107 22.2297 14.7502 22.5373 14.8393C22.6914 14.8841 22.8648 14.9502 23.0246 15.0551C23.1847 15.1601 23.3728 15.3341 23.4768 15.6015L23.5343 15.8012C23.5694 15.9969 23.5492 16.1769 23.5279 16.2965C23.4958 16.4765 23.4345 16.6594 23.3665 16.8318C23.2296 17.1795 23.0194 17.5815 22.7722 17.9998C22.428 18.582 21.9857 19.2391 21.5003 19.8964C22.3569 20.6066 23.2378 21.3719 24.1734 22.3075C24.4928 22.6269 24.4926 23.1448 24.1734 23.4643C23.854 23.7837 23.3361 23.7838 23.0166 23.4643C22.1419 22.5896 21.3154 21.8691 20.4905 21.1842C19.8483 21.9577 19.1783 22.6827 18.5747 23.2023C18.2259 23.5025 17.8544 23.7737 17.4962 23.9341C17.2085 24.0628 16.6412 24.2409 16.1429 23.8957L16.0438 23.8206L15.8633 23.6481C15.4601 23.224 15.1888 22.6479 15.0276 22.0918C14.8394 21.4423 14.7684 20.7044 14.8758 20.0322C14.9472 19.5862 15.3662 19.2821 15.8121 19.3532C16.2579 19.4247 16.5622 19.8436 16.4912 20.2895C16.4278 20.6858 16.4672 21.1786 16.5998 21.6364C16.6928 21.9568 16.819 22.2069 16.9418 22.381C17.0815 22.2999 17.2708 22.1646 17.5058 21.9624C18.0158 21.5234 18.6208 20.8748 19.2266 20.1457C18.3736 19.4512 17.4934 18.7313 16.5695 17.8688C16.2548 17.575 15.9899 17.1101 16.1493 16.557C16.2797 16.105 16.6428 15.8213 16.905 15.6574C17.4639 15.3083 18.2939 15.0664 19.0844 14.9144C19.8972 14.7582 20.7828 14.6745 21.5099 14.6987ZM10.3844 18.6533C9.54799 19.5259 8.77781 20.2859 7.99247 21.0436C8.5096 21.5863 9.02243 22.0713 9.46564 22.4321C9.6776 22.6047 9.86437 22.7351 10.0153 22.8316C10.0629 22.6836 10.1163 22.499 10.1623 22.2787C10.301 21.6133 10.3929 20.7496 10.4163 19.9316C10.4302 19.4458 10.4167 19.0078 10.3844 18.6533ZM21.454 16.3333C20.8725 16.314 20.1126 16.3823 19.3944 16.5202C18.7998 16.6345 18.3054 16.7888 17.9803 16.9389C18.7498 17.6403 19.4873 18.2487 20.2333 18.8562C20.6704 18.2604 21.0642 17.677 21.3645 17.1689C21.5524 16.851 21.692 16.5758 21.7879 16.3589C21.6928 16.3481 21.5812 16.3375 21.454 16.3333ZM12.9712 3.3703C13.4228 3.37062 13.7893 3.73676 13.7893 4.18838C13.7893 5.24336 13.8051 6.15482 13.8277 7.0133C14.6969 7.00021 15.5485 7.03134 16.2643 7.12514C16.7262 7.1857 17.169 7.27655 17.5346 7.41435C17.8121 7.519 18.214 7.71181 18.4501 8.08702L18.5396 8.25959L18.6131 8.48008C18.6657 8.69937 18.6627 8.91414 18.6418 9.09684C18.6132 9.34672 18.5433 9.59873 18.4565 9.83502C18.2827 10.308 18.008 10.8142 17.7103 11.2826C17.131 12.1943 16.3445 13.146 15.7802 13.5547C15.4143 13.8195 14.9027 13.7368 14.6377 13.371C14.3733 13.0051 14.4543 12.4934 14.8199 12.2285C15.1322 12.0023 15.7867 11.2602 16.3298 10.4054C16.5934 9.9906 16.8008 9.59374 16.9194 9.271C16.9659 9.1446 16.9901 9.04332 17.0041 8.96741C16.9899 8.96147 16.9753 8.95169 16.9578 8.94504C16.7598 8.87043 16.4564 8.80158 16.0518 8.74851C15.441 8.66847 14.6818 8.63669 13.8788 8.64785C13.9223 9.79262 13.9759 10.9485 14.0242 12.3548C14.038 12.7581 13.9127 13.3228 13.3435 13.5819C12.9015 13.783 12.4371 13.6626 12.1627 13.5659C11.5493 13.3497 10.8238 12.8555 10.1831 12.3324C9.5251 11.7951 8.86994 11.1557 8.39671 10.5716C8.16278 10.2828 7.94895 9.97906 7.80712 9.68802C7.73623 9.54249 7.6696 9.37101 7.63616 9.18791C7.60348 9.00863 7.59184 8.7547 7.70646 8.49446L7.80872 8.31391C7.92171 8.15119 8.06169 8.03962 8.16663 7.96878C8.31929 7.86579 8.49225 7.78476 8.65875 7.71953C8.9932 7.58855 9.40964 7.48094 9.85711 7.39198C10.5354 7.25715 11.3503 7.15205 12.1947 7.0868C12.1713 6.20549 12.1532 5.26899 12.1532 4.18838C12.1532 3.73657 12.5194 3.3703 12.9712 3.3703ZM12.2442 8.72455C11.4804 8.78597 10.7602 8.88019 10.1767 8.99617C9.86249 9.05863 9.60583 9.12861 9.40972 9.1927C9.47639 9.29312 9.56113 9.41035 9.66697 9.54103C10.0562 10.0214 10.6285 10.5836 11.2184 11.0653C11.6495 11.4173 12.05 11.6904 12.3657 11.8626C12.3236 10.7187 12.2821 9.72078 12.2442 8.72455Z" fill="white"/>
</g>
</svg>
