<svg fill="none" height="28" viewBox="0 0 28 28" width="28" xmlns="http://www.w3.org/2000/svg"><g clip-rule="evenodd" fill="#fff" fill-rule="evenodd" opacity=".9"><path d="m6.16776 15.1406c.81091-.0803 1.69632-.001 2.30762.1436.43911.104.7116.5442.6084.9834-.10411.4396-.5448.7124-.98438.6084-.44193-.1047-1.14619-.1693-1.77051-.1074-.31056.0308-.56052.0897-.73437.164-.0751.0322-.12162.0635-.15039.085.00071.0048.00118.01.00195.0156.00442.0319.01052.0762.02539.1309.05824.2135.17689.5047.36231.8613.26969.5186.64867 1.1162 1.0791 1.7236.98989-.8227 1.94964-1.6366 3.07226-2.6738.14016-.1295.33546-.2736.58396-.3418.2827-.0775.5911-.0429.8555.1289.2313.1508.3623.3641.4365.5215.0774.1645.1263.3414.1592.5049.1267.6301.1039 1.5342.0146 2.4023-.0914.8888-.2621 1.8411-.4814 2.6055-.1086.3785-.2389.7419-.3906 1.0361-.0757.1467-.1694.3026-.2871.4385-.1115.1286-.2962.3-.5635.3818-.2881.0879-.55425.0361-.72462-.0185-.18025-.0579-.34958-.1493-.49805-.2422-.29834-.1868-.6201-.4541-.93847-.7549-.47379-.4477-.9962-1.0204-1.50488-1.6396-.60311.5008-1.23395 1.0274-1.91797 1.6171-.34204.2943-.85842.2557-1.15332-.0859-.29469-.3421-.25595-.8583.08593-1.1533.72672-.6266 1.37809-1.1697 1.99024-1.6777-.49182-.6863-.9387-1.3872-1.2666-2.0176-.2121-.4079-.39088-.8154-.49219-1.1875-.08902-.3275-.17451-.8209.04199-1.2627.22883-.4658.6404-.7403 1.0166-.9014.38104-.1629.81055-.2478 1.2168-.2881zm4.30174 3.7051c-.89849.8085-1.72336 1.5094-2.56248 2.207.47566.5794.95182 1.1016 1.36719 1.4942.19851.1875.37524.3312.51855.4385.05834-.144.12546-.324.1875-.5401.18744-.6533.34304-1.5082.42674-2.3223.0497-.4833.0685-.9214.0625-1.2773z"/><path d="m21.5096 14.6992c.3583.012.7198.0506 1.0273.1397.154.0447.3276.1111.4873.2158.1601.105.3481.2795.4522.5469l.0576.1992c.035.1957.0154.3764-.0059.4961-.0321.1798-.0942.3628-.1621.5351-.137.3476-.3466.7498-.5937 1.168-.3442.5821-.7871 1.2392-1.2725 1.8965.8566.7102 1.7382 1.4755 2.6738 2.4111.3191.3193.3188.8368 0 1.1563-.3195.3194-.8377.3194-1.1572 0-.8747-.8746-1.7016-1.5945-2.5264-2.2793-.642.7731-1.3116 1.4981-1.915 2.0175-.3489.3003-.7209.5712-1.0791.7315-.2878.1287-.8552.307-1.3535-.0381l-.0987-.0752-.1806-.1719c-.4032-.4241-.6747-1.0005-.836-1.5566-.1882-.6495-.2588-1.3874-.1513-2.0596.0713-.4459.4905-.7498.9365-.6787.4454.0717.7495.49.6787.9356-.0634.3963-.0243.8899.1084 1.3476.0928.3201.2191.5702.3418.7442.1397-.0812.3295-.2168.5645-.419.5099-.439 1.1149-1.0874 1.7207-1.8164-.853-.6944-1.7334-1.4139-2.6573-2.2764-.3147-.2938-.5793-.7593-.4199-1.3125.1306-.4518.4937-.7355.7559-.8994.5588-.349 1.3892-.5912 2.1797-.7431.8125-.1562 1.6979-.2391 2.4248-.2149zm-.0557 1.6338c-.5815-.0193-1.3414.0495-2.0596.1875-.5944.1143-1.089.268-1.414.418.7694.7014 1.5069 1.3104 2.2529 1.9179.4371-.5957.8305-1.1795 1.1308-1.6875.188-.3179.328-.5936.4239-.8105-.0952-.0108-.2068-.0212-.334-.0254z"/><path d="m12.9715 3.37012c.4514.0005.8174.36686.8174.81836 0 1.05494.0164 1.96674.039 2.82519.8691-.01308 1.7209.01754 2.4365.11133.4619.06056.905.15129 1.2705.28906.2776.10467.6791.29785.9151.67285l.0898.17286.0733.2207c.0525.21911.0492.43365.0283.61621-.0286.24981-.0978.50204-.1846.73828-.1738.47294-.4494.97884-.747 1.44724-.5793.9117-1.3654 1.8638-1.9297 2.2725-.3659.2648-.8777.1822-1.1426-.1836-.2645-.3659-.183-.8777.1826-1.1426.3124-.2264.9668-.9687 1.5098-1.8232.2634-.41467.4712-.81118.5898-1.13382.0464-.12617.07-.22784.084-.30371-.0141-.00592-.0285-.01583-.0459-.02246-.1979-.07461-.5016-.1442-.9063-.19726-.6107-.08002-1.3698-.11175-2.1728-.10059.0435 1.14469.0972 2.30094.1455 3.70704.0139.4033-.1115.9685-.6807 1.2275-.4419.2011-.9062.0801-1.1806-.0166-.6134-.2162-1.3388-.7103-1.9795-1.2334-.65797-.5372-1.3139-1.1766-1.78712-1.7607-.23368-.2885-.4471-.59207-.58887-.88282-.0709-.14554-.13746-.31788-.1709-.50098-.03263-.17927-.04424-.43328.07031-.69336l.10156-.18066c.11298-.16262.2535-.27392.3584-.34473.15262-.10294.32576-.18382.49219-.24902.33441-.13094.75087-.23918 1.19824-.32813.67809-.13477 1.49279-.23944 2.33689-.30469-.0234-.88128-.041-1.81786-.041-2.89843 0-.45181.3666-.81836.8184-.81836zm-.7276 5.35449c-.7638.06142-1.4839.15551-2.0674.27148-.31392.06242-.57049.13223-.76655.19629.06665.1004.15102.21798.25683.34864.38922.48038.96182 1.04268 1.55172 1.52438.431.3519.8319.6247 1.1475.7969-.0421-1.1437-.0842-2.14156-.1221-3.13769z"/></g></svg>