<svg width="28" height="28" viewBox="0 0 28 28" fill="none" xmlns="http://www.w3.org/2000/svg">
<path d="M20.1133 10.5371C20.369 10.0478 20.9735 9.85779 21.4629 10.1133C21.9522 10.369 22.1422 10.9735 21.8867 11.4629C20.7636 13.6121 19.0981 15.455 17.6406 16.7539C16.9089 17.406 16.2125 17.9351 15.6396 18.3086C15.3546 18.4944 15.086 18.6516 14.8486 18.7656C14.7303 18.8225 14.6055 18.8754 14.4814 18.916C14.3709 18.9522 14.1975 19 14 19C13.8025 19 13.6291 18.9522 13.5186 18.916C13.3945 18.8754 13.2697 18.8225 13.1514 18.7656C12.914 18.6516 12.6454 18.4944 12.3603 18.3086C11.7875 17.9351 11.0911 17.406 10.3594 16.7539C8.90187 15.455 7.23641 13.6121 6.11328 11.4629C5.85779 10.9735 6.04776 10.369 6.53711 10.1133C7.02651 9.85779 7.63099 10.0478 7.88672 10.5371C8.86359 12.4062 10.348 14.0644 11.6904 15.2607C12.3586 15.8562 12.9751 16.3227 13.4521 16.6338C13.6816 16.7834 13.8667 16.8876 14 16.9531C14.1333 16.8876 14.3184 16.7834 14.5478 16.6338C15.0249 16.3227 15.6414 15.8562 16.3096 15.2607C17.652 14.0644 19.1364 12.4062 20.1133 10.5371Z" fill="white"/>
</svg>
