<svg fill="none" height="28" viewBox="0 0 28 28" width="28" xmlns="http://www.w3.org/2000/svg"><path d="m7.19897 3.9385c.33629-.01703.68172.05401.9977.15357.63759.20094 1.39169.59252 2.19173 1.09501 1.5787.99161 3.5138 2.53156 5.433 4.35291 1.7736-1.93906 3.7972-3.78946 6.1019-5.27819l.1644-.08413c.3969-.15506.8613-.01624 1.1016.35558.2744.42483.1516.99176-.2732 1.26619-2.1718 1.40295-4.0909 3.16222-5.7901 5.02716 1.5596 1.5957 3.0694 3.3594 4.3154 5.1542 1.4485 2.0869 2.5897 4.2831 2.9962 6.3452l.0721.4118.0088.1842c-.0225.4253-.3406.7909-.7782.8567-.4377.0656-.8504-.1902-.9966-.5903l-.0443-.1791-.0593-.3357c-.3356-1.6962-1.3143-3.6465-2.7045-5.6491-1.1516-1.659-2.5551-3.3059-4.0202-4.8144-1.4777 1.7657-2.7695 3.5727-3.9007 5.2223-1.2987 1.894-2.42355 3.6422-3.33044 4.781-.44829.5629-.91662 1.0723-1.3945 1.3779-.24576.1571-.55357.3004-.90845.3247-.38376.0263-.74375-.0916-1.04123-.3254-1.01927-.8014-.8272-2.0454-.52512-2.9304.32257-.9448.94829-2.0366 1.57215-3.0949.64521-1.0945 1.3133-2.1925 1.82082-3.2554.51489-1.0784.79832-1.9901.77791-2.7039-.04246-1.4813-.9212-2.43269-1.87131-3.38098-.42222-.4214-.97624-.95027-1.26731-1.51477-.16207-.3145-.27702-.69564-.23253-1.12579.04459-.42999.23792-.80895.51019-1.1381l.11898-.12648c.29074-.27168.65185-.36588.95511-.38138zm.27629 1.93376c.12713.24613.41441.53798.93381 1.05638.93387.93206 2.34103 2.34673 2.40633 4.62496.0334 1.1663-.4117 2.4047-.95565 3.544-.55128 1.1546-1.27228 2.3427-1.89501 3.3991-.64414 1.0927-1.16513 2.0191-1.41629 2.7546-.12614.3695-.15304.5889-.14457.7183.20162-.1576.48356-.4401.84784-.8975.85262-1.0707 1.89757-2.7005 3.25248-4.6764 1.1606-1.6926 2.5209-3.5981 4.1059-5.4793-1.8749-1.78449-3.7347-3.2596-5.19694-4.17801-.74828-.46997-1.34757-.76668-1.76675-.8988-.08326-.02624-.15126-.04134-.20448-.05216.00412.01597.01225.04394.03333.08483z" fill="#fff"/></svg>