<svg fill="none" height="28" viewBox="0 0 28 28" width="28" xmlns="http://www.w3.org/2000/svg"><path d="m18.8156 13.5114c1.3319 0 2.3623.5851 3.0352 1.5364.687.9718.9604 2.2596.9604 3.5592-.0001 1.2269-.1981 2.4771-.8138 3.4466-.6581 1.036-1.7291 1.649-3.1818 1.6491-1.2945 0-2.3017-.4872-2.978-1.3593-.7798-1.0062-1.0176-2.3935-1.0177-3.7364 0-1.2594.2563-2.5038.8943-3.4627.668-1.0038 1.7198-1.6329 3.1014-1.6329zm1.1321-8.94832c.3298-.2692.8143-.28112 1.1572-.00179.392.31941.4499.8975.1306 1.28957l-14.10651 17.31524c-.31934.392-.89748.4515-1.28956.1324-.39146-.3193-.45084-.8958-.13236-1.2878l14.10833-17.31705zm-2.157 17.08632c.259.1373.5899.2218 1.0249.2218.8633-.0001 1.3324-.3239 1.6347-.7995.3447-.5428.5293-1.3839.5294-2.4647 0-.4255-.0383-.8176-.1055-1.1697zm1.0249-6.3065c-.7507 0-1.2389.3068-1.5776.8156-.3683.5538-.5866 1.4001-.5866 2.4485 0 .5013.0423.9487.118 1.3379l3.1408-4.2908c-.2849-.1988-.6408-.3112-1.0946-.3112zm-11.53279-10.75478c.25647-.27493.65531-.36476 1.00518-.22715.34966.13805.58129.47539.58129.85137v7.67476h.23072l.18423.0179c.4174.0853.73157.4553.73157.8979-.0004.4423-.31443.8108-.73157.8961l-.18423.0197h-2.3323c-.5055 0-.91533-.4104-.91575-.9158 0-.5058.40999-.9158.91575-.9158h.27007v-5.35139l-.26471.28438-.13951.12163c-.34678.24646-.83011.2242-1.15363-.07691-.36989-.34493-.38964-.92505-.04471-1.29494z" fill="#fff"/></svg>