<svg fill="none" height="28" viewBox="0 0 28 28" width="28" xmlns="http://www.w3.org/2000/svg"><path d="m19.3134 4.6328c.6186-.43424 1.3437-.71345 2.0948-.61231 1.0952.14763 2.0038.63094 2.6172 1.4209.6051.77937.8493 1.76112.8115 2.78418-.074 2.00193-1.219 4.32943-3.2881 6.42383.0524.0056.1073.0132.165.0186.5381.0494 1.3846.0842 2.0332.1962.3382.0585.7192.1513 1.0577.3223.3009.152.6439.4068.8427.8213l.0762.1875.0439.1738c.0718.398-.063.7454-.1337.9082-.1016.2337-.246.4655-.3789.6631-.1368.2033-.2953.4197-.4395.6182-.1495.2057-.2895.3992-.4131.5859-.0865.1307-.1563.2475-.2119.3496.4014.188.643.6284.5596 1.085-.0993.5432-.6209.9029-1.1641.8037-.3726-.0681-.7791-.2134-1.0908-.5322-.3412-.3491-.4481-.7804-.4307-1.1621.0159-.3487.1328-.6671.2481-.9141.1198-.2567.2731-.5072.4228-.7334.1509-.2279.3142-.4549.4619-.6582.14-.1926.2617-.3621.3672-.5166-.0476-.0103-.1005-.0203-.1582-.0303-.5502-.095-1.155-.1095-1.876-.1758-.326-.0299-.679-.0732-.9951-.1523-.2815-.0705-.7173-.2106-1.0332-.5596-.1777-.1963-.3081-.4494-.3476-.747-.038-.286.0166-.5479.0996-.7637.1556-.4049.4625-.7818.8135-1.1328 1.888-1.888 2.7203-3.79507 2.7705-5.15335.0246-.66762-.1376-1.15609-.3916-1.4834-.246-.31671-.6501-.57673-1.3047-.66504-.0806-.01086-.304.00354-.6787.2666-.3679.25826-.8071.70686-1.2676 1.39063-.9189 1.36446-1.8374 3.53776-2.4395 6.54786-.6232 3.1157-1.9259 5.9536-3.5752 7.6426-.8267.8466-1.8189 1.4819-2.9277 1.6093-1.1552.1327-2.25073-.3063-3.18555-1.2412-.77743-.7775-1.19749-1.6729-1.30175-2.6211-.1022-.93.10623-1.8423.46679-2.6718.71343-1.6409 2.09673-3.1384 3.41797-4.1953 1.72784-1.3824 3.09064-2.98148 3.73244-4.30278.324-.66727.4149-1.16247.3789-1.47852-.0277-.24218-.126-.42008-.4287-.56933-.324-.15974-.5357-.15905-.6865-.12305-.1714.04089-.3875.15842-.6534.42578-.562.56532-1.0816 1.51656-1.6777 2.68067-.55535 1.08453-1.18103 2.36303-1.92383 3.27543-.37981.4664-.84321.9066-1.41504 1.1777-.60006.2845-1.26975.3585-1.97558.1572-.90334-.2578-1.47387-.8821-1.75879-1.6367-.26634-.7057-.2808-1.5057-.19629-2.2393.16979-1.47316.78635-3.06509 1.3584-4.07809.27162-.48065.88151-.65031 1.3623-.3789.48085.27154.65034.88143.37891 1.3623-.46994.83218-.98025 2.16956-1.11328 3.32419-.0668.5801-.02644 1.0189.08105 1.3037.08914.2361.21326.3553.43653.419.22745.0648.39831.0415.57031-.0401.20047-.095.4411-.2903.7207-.6337.57588-.7074 1.09169-1.74696 1.69434-2.92387.56198-1.09747 1.21692-2.35183 2.04007-3.17969.4267-.42921.9566-.80561 1.6074-.96093.6711-.16007 1.3583-.05776 2.0342.27539.9071.4472 1.4267 1.211 1.5322 2.13574.097.85107-.164 1.7486-.5674 2.5791-.8133 1.67446-2.4106 3.49286-4.2822 4.99026-1.17869.9429-2.29545 2.1966-2.83205 3.4306-.26427.6079-.36846 1.1647-.31445 1.6563.05204.4735.25716.9534.72949 1.4258.5856.5854 1.10079.7188 1.54301.6679.4887-.0563 1.0816-.3611 1.7246-1.0195 1.2902-1.3214 2.4671-3.7537 3.0439-6.6377.6383-3.1916 1.638-5.63132 2.7432-7.27245.5514-.81879 1.1509-1.47104 1.7763-1.91015z" fill="#fff" opacity=".9"/></svg>