<svg width="28" height="28" viewBox="0 0 28 28" fill="none" xmlns="http://www.w3.org/2000/svg">
<path d="M12 9L16.5 9C16.7761 9 17 9.22386 17 9.5C17 9.77614 16.7761 10 16.5 10L12 10C11.7239 10 11.5 9.77614 11.5 9.5C11.5 9.22386 11.7239 9 12 9Z" fill="white"/>
<path d="M10.5 12L18 12C18.5523 12 19 12.4477 19 13C19 13.5523 18.5523 14 18 14L10.5 14C9.94772 14 9.5 13.5523 9.5 13C9.5 12.4477 9.94772 12 10.5 12Z" fill="white"/>
<path d="M9 16L19.5 16C20.3284 16 21 16.6716 21 17.5C21 18.3284 20.3284 19 19.5 19L9 19C8.17157 19 7.5 18.3284 7.5 17.5C7.5 16.6716 8.17157 16 9 16Z" fill="white"/>
</svg>
