<svg width="28" height="28" viewBox="0 0 28 28" fill="none" xmlns="http://www.w3.org/2000/svg">
<path d="M9 19V8.5C9 8.22386 9.22386 8 9.5 8C9.77614 8 10 8.22386 10 8.5V19C10 19.2761 9.77614 19.5 9.5 19.5C9.22386 19.5 9 19.2761 9 19Z" fill="white"/>
<path d="M12 19.5V8C12 7.44772 12.4477 7 13 7C13.5523 7 14 7.44772 14 8V19.5C14 20.0523 13.5523 20.5 13 20.5C12.4477 20.5 12 20.0523 12 19.5Z" fill="white"/>
<path d="M16 20V7.5C16 6.67157 16.6716 6 17.5 6C18.3284 6 19 6.67157 19 7.5V20C19 20.8284 18.3284 21.5 17.5 21.5C16.6716 21.5 16 20.8284 16 20Z" fill="white"/>
</svg>
