<svg width="28" height="28" viewBox="0 0 28 28" fill="none" xmlns="http://www.w3.org/2000/svg">
<path d="M16.256 4.5006C16.8094 4.0977 17.57 3.79941 18.3273 4.16611L18.478 4.24819L18.6568 4.37175C19.0473 4.67775 19.2538 5.10434 19.3447 5.51906C19.4443 5.97362 19.4156 6.44848 19.3464 6.86054C19.2085 7.68145 18.8649 8.50825 18.5785 8.98572C18.0446 9.87554 17.2293 10.8516 16.2356 11.8266C16.7239 11.8067 17.2424 11.729 17.7663 11.5345C18.5722 11.2353 19.1149 10.9005 19.4954 10.5319C19.868 10.171 20.1233 9.74152 20.3016 9.18694C20.454 8.71354 20.9474 8.45723 21.4041 8.61505C21.8609 8.77289 22.1072 9.28534 21.955 9.75883C21.6974 10.5597 21.2988 11.26 20.6865 11.8531C20.0821 12.4386 19.3088 12.8818 18.3546 13.2361C17.1001 13.7018 15.8983 13.6724 15.0522 13.597C15.2854 14.2217 15.4557 14.9419 15.5672 15.6746C15.7478 16.86 15.7943 18.187 15.672 19.4139C15.5519 20.6179 15.2589 21.8335 14.6776 22.7129C14.3794 23.1639 13.9825 23.5597 13.4661 23.7914C12.9403 24.0271 12.3616 24.0602 11.7634 23.9052C10.869 23.6734 10.3826 22.9346 10.1535 22.1525C9.92898 21.3861 9.90061 20.4438 9.97978 19.458C10.0619 18.4361 10.2683 17.2863 10.5613 16.092C9.1066 16.9219 7.58408 17.6073 6.101 18.0266C5.63661 18.1576 5.15749 17.8734 5.03084 17.392C4.90433 16.9106 5.17854 16.4139 5.64297 16.2826C7.49755 15.7583 9.4777 14.749 11.296 13.5326C11.3922 13.2392 11.4927 12.9468 11.5957 12.6562C12.4261 10.3137 13.4876 8.02607 14.5584 6.41926C15.0879 5.62468 15.6613 4.93363 16.256 4.5006ZM13.4159 14.2228C13.2027 14.381 12.9856 14.5371 12.7654 14.6914C12.2136 16.4749 11.8297 18.2101 11.7174 19.6081C11.6458 20.4991 11.6906 21.1785 11.8221 21.6274C11.9487 22.0594 12.1012 22.1296 12.1856 22.1516C12.459 22.2224 12.6413 22.1916 12.7739 22.1322C12.9161 22.0684 13.0758 21.9374 13.2388 21.6909C13.5796 21.1754 13.8297 20.3113 13.9377 19.2277C14.0435 18.1668 14.0035 16.9974 13.8449 15.9561C13.7396 15.2646 13.587 14.6742 13.4159 14.2228ZM17.5807 5.81207C17.5333 5.8206 17.4266 5.8562 17.258 5.97887C16.9124 6.2305 16.4783 6.71813 15.9929 7.44655C15.2811 8.51476 14.5463 9.96683 13.8875 11.5672C15.3447 10.3164 16.4842 9.05389 17.098 8.0308C17.2765 7.73319 17.533 7.12312 17.6292 6.54988C17.677 6.26508 17.6737 6.05322 17.6446 5.91974C17.6311 5.85836 17.6156 5.82936 17.6096 5.82001C17.606 5.81427 17.605 5.81279 17.5994 5.80942C17.5959 5.80954 17.5896 5.81049 17.5807 5.81207Z" fill="white"/>
</svg>
