<svg width="29" height="28" viewBox="0 0 29 28" fill="none" xmlns="http://www.w3.org/2000/svg">
<g opacity="0.9">
<path d="M6.62704 9.63651C7.0001 9.56258 7.46096 9.50703 7.96547 9.46426C8.97975 9.3783 10.2463 9.3436 11.4991 9.36792C12.7487 9.39218 14.0162 9.4752 15.027 9.63148C15.5287 9.70909 16.0017 9.80912 16.3874 9.94326C16.58 10.0103 16.7781 10.0954 16.9566 10.2063C17.0837 10.2854 17.2388 10.4016 17.3698 10.5677L17.4907 10.7507L17.5605 10.8987C17.6209 11.0485 17.6559 11.2004 17.6793 11.3214C17.7138 11.5004 17.738 11.7026 17.7555 11.9143C17.7907 12.3393 17.8035 12.8628 17.799 13.439C17.7901 14.5951 17.7125 16.0249 17.5904 17.4309C17.4684 18.8358 17.3012 20.2385 17.1067 21.3378C17.01 21.8844 16.9025 22.3789 16.7848 22.7688C16.7264 22.9623 16.6573 23.155 16.5756 23.3236C16.5092 23.4605 16.3724 23.7146 16.1202 23.892C15.9389 24.0195 15.7341 24.0939 15.5794 24.1409C15.4095 24.1925 15.2194 24.2361 15.0226 24.271C14.6283 24.3409 14.1453 24.3931 13.6189 24.4323C12.5622 24.5108 11.2593 24.5392 9.9862 24.5214C8.71452 24.5036 7.44745 24.4399 6.46295 24.3296C5.9748 24.2749 5.52731 24.2054 5.17504 24.1164C5.00168 24.0726 4.81765 24.0147 4.65218 23.9364C4.53161 23.8793 4.21922 23.7227 4.05045 23.3777C3.95385 23.1802 3.9177 22.9596 3.89831 22.8191C3.87515 22.6513 3.86073 22.4586 3.85203 22.2539C3.83455 21.8424 3.83653 21.3246 3.85497 20.747C3.89194 19.5884 3.99257 18.1348 4.13159 16.6948C4.2705 15.2561 4.45014 13.812 4.64753 12.6757C4.7458 12.11 4.85227 11.5996 4.96534 11.1983C5.02149 10.999 5.08538 10.8057 5.159 10.6369C5.21893 10.4995 5.33564 10.2552 5.54938 10.0702L5.69301 9.96309C5.83935 9.86877 5.98875 9.81157 6.09523 9.77516C6.25837 9.71938 6.44113 9.67337 6.62704 9.63651ZM6.7992 11.4789C6.77924 11.5362 6.75295 11.6071 6.72804 11.6955C6.63959 12.0095 6.54598 12.4488 6.45223 12.9884C6.26557 14.0627 6.09176 15.4569 5.9553 16.8702C5.81897 18.2822 5.7219 19.6952 5.68648 20.805C5.66872 21.3616 5.66633 21.8293 5.68108 22.1764C5.68386 22.2418 5.6904 22.3007 5.69407 22.3538C5.92601 22.407 6.25293 22.4623 6.66597 22.5086C7.57052 22.6099 8.77427 22.6726 10.0116 22.6899C11.248 22.7071 12.4952 22.679 13.4838 22.6055C13.9796 22.5686 14.3939 22.5223 14.7028 22.4675C14.8124 22.448 14.9002 22.4229 14.9699 22.4052C14.9863 22.3602 15.0109 22.3065 15.0313 22.2392C15.1187 21.9493 15.2111 21.5345 15.3026 21.0178C15.4843 19.9901 15.6465 18.6452 15.7658 17.272C15.885 15.8996 15.959 14.5197 15.9674 13.4244C15.9717 12.8755 15.9601 12.4131 15.9314 12.0653C15.9193 11.9199 15.9012 11.8048 15.8866 11.7174C15.8584 11.7057 15.8256 11.6868 15.7849 11.6726C15.5492 11.5907 15.2004 11.5115 14.7478 11.4415C13.8489 11.3025 12.671 11.2226 11.4646 11.1992C10.2609 11.1758 9.05838 11.2083 8.12 11.2878C7.64901 11.3278 7.26214 11.3787 6.98215 11.4342C6.90911 11.4487 6.84906 11.4661 6.7992 11.4789ZM13.665 3.7817C14.0172 3.73119 14.4699 3.69386 14.9748 3.66675C15.9901 3.61227 17.2908 3.59528 18.591 3.62022C19.8899 3.64515 21.2099 3.71108 22.261 3.82223C22.7837 3.87751 23.2623 3.94721 23.6465 4.03377C23.8373 4.07677 24.0275 4.12859 24.197 4.19477C24.3052 4.23706 24.4687 4.30868 24.6237 4.42882L24.7732 4.56546L24.9052 4.73942C25.0161 4.91882 25.0665 5.10215 25.0916 5.19809C25.1369 5.37088 25.1701 5.56738 25.1949 5.76838C25.2451 6.17496 25.2749 6.69272 25.2902 7.26636C25.3211 8.41897 25.2946 9.8808 25.2324 11.3258C25.1701 12.7718 25.071 14.2194 24.952 15.3441C24.8927 15.9038 24.8277 16.4 24.7562 16.7814C24.7208 16.9701 24.6794 17.1522 24.6311 17.3079C24.6071 17.3853 24.5756 17.4751 24.5337 17.5633C24.499 17.6364 24.4226 17.7831 24.2819 17.9149C24.0833 18.1005 23.8472 18.1886 23.7072 18.2329C23.5446 18.2843 23.37 18.3199 23.2054 18.3448C22.8742 18.3948 22.4916 18.4172 22.1311 18.4263C21.4266 18.444 20.6634 18.41 20.3434 18.3592C19.844 18.2796 19.5031 17.8096 19.5827 17.3101C19.6625 16.8113 20.131 16.4708 20.6299 16.5497C20.7845 16.5743 21.4177 16.6126 22.0842 16.5958C22.4094 16.5876 22.7072 16.5676 22.9314 16.5337L22.9329 16.5317C22.9385 16.5044 22.9489 16.4761 22.9548 16.4447C23.0132 16.133 23.0734 15.6907 23.1306 15.1502C23.2445 14.0743 23.3418 12.6674 23.4029 11.2475C23.4641 9.82642 23.4876 8.41014 23.4583 7.31532C23.4435 6.76572 23.4156 6.31626 23.376 5.99467C23.3693 5.94054 23.3569 5.89252 23.3503 5.85026C23.3183 5.84202 23.2834 5.82961 23.2439 5.82071C22.9596 5.75666 22.5612 5.69534 22.0688 5.64327C21.0893 5.53967 19.8263 5.47585 18.5565 5.45147C17.288 5.42713 16.0334 5.4426 15.0738 5.49407C14.5918 5.51994 14.201 5.55551 13.9266 5.59484C13.8889 5.60024 13.8548 5.60844 13.8245 5.61351C13.7892 5.7225 13.7573 5.86536 13.7328 6.03475C13.6803 6.39802 13.6749 6.78904 13.6841 7.02355C13.7036 7.52861 13.3093 7.95396 12.8042 7.97388C12.2988 7.99369 11.8719 7.59965 11.8521 7.09427C11.8397 6.77621 11.8485 6.27188 11.9204 5.77411C11.9564 5.52486 12.0125 5.25299 12.1002 4.9975C12.1836 4.75477 12.3207 4.45004 12.5638 4.2048C12.6957 4.07182 12.8397 4.00099 12.9161 3.96711C13.0046 3.92786 13.0928 3.89899 13.1679 3.87836C13.3186 3.83704 13.4912 3.80665 13.665 3.7817Z" fill="white"/>
</g>
</svg>
