<svg width="28" height="28" viewBox="0 0 28 28" fill="none" xmlns="http://www.w3.org/2000/svg">
<path d="M6.94367 8.4112C7.32379 8.39909 7.78753 8.41943 8.29227 8.45949C9.30699 8.54007 10.5622 8.71235 11.7943 8.94062C13.0232 9.16831 14.2603 9.4569 15.232 9.7759C15.7144 9.93428 16.1647 10.1101 16.5234 10.3053C16.7025 10.4028 16.884 10.5191 17.0421 10.6577C17.1546 10.7564 17.2886 10.8963 17.3908 11.0816L17.4803 11.2819L17.525 11.4393C17.5601 11.5969 17.5699 11.7524 17.5733 11.8757C17.5781 12.0579 17.569 12.2613 17.5518 12.4731C17.5172 12.8982 17.4445 13.4167 17.3461 13.9845C17.1488 15.1236 16.8391 16.5216 16.4894 17.8889C16.1399 19.2551 15.7462 20.6118 15.3751 21.6647C15.1906 22.1882 15.0039 22.6585 14.8242 23.024C14.735 23.2054 14.6354 23.3843 14.5273 23.5373C14.4395 23.6615 14.2631 23.8899 13.9854 24.0238C13.7857 24.1201 13.5715 24.1601 13.4112 24.1812C13.2351 24.2044 13.0404 24.2164 12.8407 24.2188C12.4402 24.2235 11.9552 24.1962 11.4295 24.149C10.374 24.0542 9.08397 23.8697 7.83081 23.6446C6.57904 23.4197 5.33932 23.1503 4.38598 22.8809C3.91329 22.7473 3.48312 22.6058 3.15007 22.4606C2.98617 22.3891 2.81405 22.3019 2.66357 22.1977C2.55392 22.1217 2.27125 21.9163 2.16098 21.5484C2.09788 21.3377 2.09818 21.1142 2.10195 20.9725C2.10647 20.8031 2.12367 20.6106 2.14846 20.4073C2.1983 19.9984 2.2847 19.4879 2.39707 18.921C2.62246 17.7839 2.95876 16.3662 3.33072 14.9682C3.70235 13.5714 4.11506 12.1759 4.49509 11.0869C4.68429 10.5449 4.87255 10.0586 5.04955 9.6811C5.13744 9.49367 5.232 9.31336 5.33215 9.15883C5.41369 9.03302 5.56867 8.81105 5.8097 8.66339L5.96889 8.58112C6.12864 8.51192 6.28537 8.47984 6.39636 8.46128C6.56642 8.43286 6.75423 8.41726 6.94367 8.4112ZM6.8131 10.257C6.78407 10.3103 6.74657 10.376 6.70757 10.4591C6.56911 10.7545 6.40513 11.1726 6.22465 11.6897C5.86531 12.7193 5.4665 14.0664 5.10142 15.4386C4.73667 16.8095 4.41051 18.1877 4.1946 19.2769C4.08633 19.8231 4.00771 20.2842 3.96566 20.6291C3.95775 20.694 3.95459 20.7532 3.94957 20.8061C4.16971 20.8965 4.48325 21.0043 4.88321 21.1173C5.75913 21.3649 6.93656 21.6229 8.15454 21.8417C9.3715 22.0603 10.6066 22.236 11.594 22.3246C12.0891 22.3691 12.5055 22.3909 12.8192 22.3872C12.9305 22.3859 13.0212 22.3755 13.0928 22.3694C13.1163 22.3276 13.1495 22.2787 13.1805 22.2155C13.3141 21.9439 13.4729 21.5496 13.6473 21.0547C13.9942 20.0705 14.3735 18.77 14.7151 17.4346C15.0565 16.1001 15.3545 14.7507 15.5414 13.6714C15.6351 13.1305 15.6991 12.6724 15.7274 12.3246C15.7393 12.1792 15.7401 12.0627 15.74 11.9741C15.714 11.9579 15.6849 11.9339 15.647 11.9133C15.4278 11.7941 15.0966 11.6591 14.6614 11.5162C13.7973 11.2325 12.6481 10.9616 11.4616 10.7417C10.2779 10.5224 9.08617 10.3584 8.14739 10.2839C7.67619 10.2465 7.28619 10.2336 7.0009 10.2427C6.92647 10.2451 6.86439 10.2525 6.8131 10.257ZM14.8421 3.78233C15.1978 3.78992 15.6505 3.82689 16.1531 3.88249C17.1637 3.99428 18.4498 4.18961 19.7285 4.42622C21.0059 4.66259 22.2975 4.94288 23.3164 5.22393C23.8231 5.3637 24.284 5.51051 24.6489 5.65856C24.8302 5.7321 25.0094 5.81423 25.1658 5.90718C25.2657 5.96654 25.4153 6.06385 25.5486 6.20766L25.6738 6.36684L25.7757 6.56001C25.8559 6.75509 25.8757 6.94417 25.8848 7.04293C25.9013 7.22079 25.9021 7.42007 25.8938 7.62243C25.877 8.03175 25.8219 8.54743 25.7435 9.11591C25.5861 10.2581 25.3215 11.6961 25.0245 13.1116C24.7274 14.5281 24.3935 15.9401 24.0927 17.0304C23.943 17.573 23.798 18.0518 23.6652 18.4166C23.5995 18.597 23.529 18.7699 23.4559 18.9156C23.4196 18.9881 23.3739 19.0715 23.3182 19.1517C23.272 19.2182 23.1728 19.3504 23.0124 19.4575C22.7863 19.6083 22.5389 19.6567 22.3935 19.6775C22.2247 19.7017 22.0467 19.7085 21.8802 19.7062C21.5453 19.7015 21.1641 19.6612 20.807 19.6114C20.1091 19.514 19.3616 19.356 19.0542 19.2536C18.5744 19.0937 18.3148 18.5744 18.4747 18.0946C18.6348 17.6155 19.1526 17.3559 19.6319 17.5151C19.7804 17.5646 20.3989 17.7056 21.0592 17.7977C21.3814 17.8427 21.6784 17.8715 21.9052 17.8746L21.907 17.8728C21.9169 17.8469 21.9318 17.8206 21.9428 17.7906C22.0512 17.4926 22.1828 17.0661 22.3273 16.5421C22.6151 15.4992 22.9405 14.127 23.2324 12.736C23.5244 11.3439 23.7786 9.95045 23.9281 8.8655C24.0032 8.32085 24.049 7.87285 24.0623 7.5491C24.0645 7.49461 24.0601 7.44521 24.0605 7.40244C24.0303 7.3891 23.9978 7.37116 23.9603 7.35593C23.6903 7.24639 23.3072 7.12093 22.8299 6.98927C21.8804 6.72733 20.6447 6.45844 19.3958 6.22733C18.1483 5.99649 16.908 5.80718 15.9528 5.70149C15.473 5.64841 15.0817 5.6198 14.8045 5.61385C14.7665 5.61303 14.7315 5.61556 14.7008 5.61563C14.6482 5.7174 14.5934 5.85315 14.5416 6.01628C14.4306 6.36613 14.3615 6.75103 14.3323 6.98391C14.2692 7.48538 13.8108 7.84074 13.3093 7.77804C12.8074 7.71518 12.4505 7.25681 12.5133 6.75497C12.5529 6.43913 12.6439 5.94298 12.7959 5.4636C12.8721 5.22356 12.9718 4.96448 13.1 4.72671C13.2218 4.50082 13.4069 4.22253 13.6867 4.02021C13.8385 3.91052 13.9921 3.86412 14.073 3.84314C14.1667 3.81886 14.2584 3.80474 14.3359 3.79664C14.4913 3.78044 14.6666 3.7786 14.8421 3.78233Z" fill="white"/>
</svg>
