<svg fill="none" height="28" viewBox="0 0 28 28" width="28" xmlns="http://www.w3.org/2000/svg"><g fill="#fff"><path clip-rule="evenodd" d="m7.85999 9.38486c1.00146-.01351 2.22401.06481 3.43161.20703 1.2077.14225 2.4335.35265 3.4395.61031.5014.1285.9708.2737 1.3642.4385.3591.1504.7859.3696 1.0762.7012.3197.3653.4569.8687.5313 1.2568.0833.4351.1258.9479.1435 1.4903.0356 1.0893-.0302 2.4101-.1533 3.707-.1234 1.2998-.307 2.6047-.5137 3.668-.1031.5305-.2141 1.0153-.331 1.415-.1061.3628-.2492.7719-.4522 1.0635-.1874.269-.4434.4225-.6279.5107-.1974.0944-.4125.1611-.6192.21-.4144.098-.9162.155-1.4482.1846-1.0724.0596-2.4094.0159-3.73242-.1026-1.32338-.1185-2.67199-.3159-3.7666-.5762-.54479-.1295-1.05425-.2809-1.47558-.458-.37362-.157-.85896-.4051-1.15137-.8183-.25537-.3611-.37348-.837-.44141-1.2364-.07445-.4379-.11427-.9531-.12793-1.5029-.02738-1.1027.0486-2.434.20508-3.7519.15635-1.3167.39745-2.6547.71387-3.7676.15799-.5557.34162-1.078.55273-1.5215.20175-.4237.47033-.8663.8418-1.17383.35376-.29274.84069-.39975 1.17773-.4541.39565-.06375.86497-.09287 1.36329-.09961zm.02734 2.00004c-.44762.006-.81004.0329-1.07227.0752-.14373.0231-.22328.0449-.25781.0556-.05568.0633-.15358.2012-.27539.4571-.14708.309-.29389.7176-.43359 1.2089-.27891.9813-.50426 2.2089-.65235 3.4561-.14795 1.2463-.21492 2.4793-.19043 3.4658.01229.4947.04682.9062.09961 1.2168.03829.2252.07667.3454.09473.3945.03291.0215.1207.0757.30078.1514.2815.1183.67495.2411 1.16406.3574.97376.2315 2.22136.4175 3.48143.5303 1.2607.1129 2.4964.1493 3.4434.0967.477-.0266.8471-.0743 1.0986-.1338.0472-.0112.0858-.0237.1172-.0332.03-.0764.0729-.1947.123-.3662.0935-.3197.1918-.7391.2881-1.2344.1923-.9891.3671-2.229.4854-3.4756.1186-1.2496.1782-2.4791.1465-3.4531-.016-.489-.0544-.8873-.1104-1.1797-.0374-.1952-.0736-.2917-.0869-.3262-.0401-.026-.1385-.0836-.3281-.1631-.2712-.1135-.6397-.2306-1.0889-.3457-.8952-.2293-2.0277-.4253-3.1758-.5605-1.14822-.1352-2.28013-.2063-3.17087-.1943z" fill-rule="evenodd"/><path d="m15.3199 4.00302c.9854-.01852 2.2074.0486 3.417.18653 1.2067.13761 2.4402.35019 3.4424.63379.4989.14118.9728.30925 1.3672.51074.314.16042.7003.40206.959.77051l.1025.16504.0664.13672c.1461.32941.2228.72119.2705 1.07714.0587.43755.0892.95007.0987 1.49805.019 1.09866-.0454 2.41076-.166 3.68946-.1206 1.2776-.3006 2.5515-.5205 3.5732-.1095.5083-.2342.9784-.375 1.3643-.0704.1928-.1507.3846-.2461.5566-.0893.1608-.2257.3678-.4268.5342-.6149.5085-1.4311.5549-1.9609.5342-.583-.0228-1.1352-.1436-1.4532-.2285-.5332-.1426-.8501-.6903-.708-1.2237.1425-.5336.691-.8514 1.2246-.7089.2422.0646.6352.1492 1.0137.164.1878.0074.3438-.0038.461-.0283.0509-.0107.0859-.0249.1093-.0342.0274-.0526.0658-.1332.1084-.25.0969-.2654.1981-.6382.2979-1.1015.1984-.9219.3686-2.1124.4844-3.3389.1157-1.2261.1756-2.461.1582-3.4668-.0088-.50375-.0373-.93346-.0821-1.26758-.0223-.1663-.0472-.29752-.0722-.39551-.0128-.04985-.0265-.08379-.0342-.10547-.0283-.02215-.0929-.06947-.2188-.13379-.2326-.11882-.5689-.24463-1.0019-.36718-.8618-.24386-1.9808-.43973-3.126-.57032-1.1422-.13022-2.2729-.19129-3.1514-.1748-.442.00831-.7957.03596-1.0439.07617-.077.01248-.1352.02467-.1768.03516-.2718.31925-.3935.83197-.4775 1.72168-.052.5497-.5401.95325-1.0899.90136-.5495-.05193-.9528-.53933-.9013-1.08886.0846-.89615.2285-2.1692 1.1582-3.05957l.0791-.06934c.1863-.15157.3902-.23398.5293-.28125.1779-.06045.3702-.10324.5586-.13379.3786-.06136.8363-.09137 1.3261-.10059z"/></g></svg>