<svg fill="none" height="28" viewBox="0 0 28 28" width="28" xmlns="http://www.w3.org/2000/svg"><g fill="#fff" opacity=".9"><path d="m7.67341 3c.55186.00032.99975.44812 1 1 0 2.73473-.91096 5.25724-1.62207 7.8428-.00968.0351-.0187.0711-.02833.1064.88451-.0241 1.92572-.2348 3.09179-.4834.7489-.1596 1.5409-.3303 2.2891-.4267.4359-.0562.8852-.0913 1.3271-.0801.4198-1.95754.751-4.10937.751-6.93459 0-.55228.4477-1 1-1 .5518.00054 1 .44805 1 1 0 4.56519-.8193 7.52549-1.499 10.36619-.6704 2.8016-1.2217 5.5365-.8135 9.8233.052.5493-.3512 1.037-.9004 1.0898-.5497.0524-1.0383-.3507-1.0908-.9004-.4378-4.5975.1645-7.5747.8594-10.4785.0764-.3192.1514-.6376.2285-.956-.1875.0103-.39.0268-.6065.0546-.6514.084-1.3594.2346-2.1279.3985-1.23067.2623-2.67863.5781-4 .5205-.44776 2.0965-.70284 4.4428-.40234 7.2988.05777.549-.34073 1.0415-.88965 1.0996-.54903.0577-1.04067-.3406-1.09863-.8896-.44122-4.1928.22547-7.3864.98242-10.1387.76954-2.79796 1.54981-4.93013 1.54981-7.3125.00024-.55192.44807-.99975 1-1z"/><path d="m18.7593 12.6426c.0904-.5446.6058-.9133 1.1504-.8233.5448.0904.9136.6057.8233 1.1504-.15.9039-.3493 1.6081-.5479 2.2256-.2063.6414-.3766 1.0924-.5244 1.6397-.2701 1.0003-.4323 2.2356-.124 4.6894.0685.5475-.3198 1.047-.8672 1.1162-.5476.0688-1.0478-.3188-1.1172-.8662-.3332-2.6521-.1742-4.1577.1777-5.4609.1632-.6042.3801-1.1967.5518-1.7305.1793-.5577.3484-1.1626.4775-1.9404z"/><path d="m21.8101 5.96777c.5506-.03998 1.0301.37319 1.0703.92383.04.54807-.05 1.03194-.2763 1.44922-.2213.40757-.5283.66666-.7666.83789-.1141.08192-.2334.1587-.3106.20899-.0862.05615-.1358.09057-.1719.11914-.1558.48533-.658.78246-1.166.67086-.5389-.1186-.8797-.65235-.7617-1.19137l.0508-.18457c.1387-.40941.4057-.68011.625-.85547.1194-.0954.2418-.1766.332-.23535.1016-.06619.1689-.10758.2354-.15528.1226-.08811.1587-.13767.1758-.16894.0121-.02243.0564-.11101.039-.34961-.0401-.55057.3743-1.02891.9248-1.06934z"/></g></svg>