<svg fill="none" height="28" viewBox="0 0 28 28" width="28" xmlns="http://www.w3.org/2000/svg"><g clip-rule="evenodd" fill="#fff" fill-rule="evenodd"><path d="m13.0179 14.8292c-.0003-.5054-.4103-.9156-.9157-.9157-.7687-.0001-1.5312.3741-2.0533.9318-.54043.5775-.89304 1.4324-.66361 2.3967.10668.4484.31563.8549.64391 1.1751.2869.2798.6343.4552 1.0034.5563-.2548.3473-.4882.7696-.567 1.2395-.2631 1.5692.524 2.7533 1.658 3.3375 1.0809.5566 2.4819.5856 3.6541.0179 1.6541-.8014 3.0727-2.686 3.0728-5.0439 0-.5055-.4103-.9154-.9158-.9157-.5057 0-.9157.41-.9157.9157-.0001 1.6136-.9781 2.8805-2.039 3.3948-.6618.3206-1.4565.2924-2.0175.0036-.5077-.2614-.8092-.7106-.6922-1.4077.0193-.1153.1224-.3331.3827-.6403.2447-.2885.5574-.5737.8604-.8245.1491-.1235.2905-.2345.4149-.3309l.0773-.0598c.0906-.07.1796-.1388.2429-.1906.0334-.0274.1027-.0854.1645-.152.0189-.0199.1294-.1364.1968-.3095.0358-.0921.1219-.3556.0017-.6671-.1388-.359-.4372-.5059-.6081-.5545-.1544-.0438-.2831-.0362-.3327-.0322-.062.0051-.1129.0146-.143.0215-.0604.0137-.112.0319-.1431.0429-.066.0233-.1388.0542-.2075.0841-.7706.3349-1.3083.3865-1.6115.3237-.1373-.0285-.2129-.0763-.2576-.1198-.0447-.0436-.1026-.1255-.1413-.288-.0613-.2577.0154-.5038.2182-.7208.2215-.2366.5183-.3523.7173-.3523.5056-.0001.9157-.4101.9157-.9158zm4.2461-6.94866c-.4397-.24986-.9985-.09452-1.2484.3452-.2931.51588-.5445 1.19915-.5956 1.90666-.0514.7111.0973 1.5532.744 2.1999.4664.4662.9921.7669 1.5633.8854.4205.0872.8285.0664 1.2091-.0215-.3346.5045-.7056.9407-1.0964 1.2288-.46.339-.8759.4347-1.3075.3023-.243-.0747-.47-.284-.626-.6332-.1599-.3581-.1863-.7382-.1324-.9694.1148-.4923-.1911-.9849-.6832-1.1-.4926-.1148-.9852.1925-1.1.685-.1564.6718-.057 1.46.2433 2.132.3043.6813.8733 1.3641 1.7599 1.6366 1.1357.3489 2.1479.0011 2.9333-.5777.7634-.5626 1.3692-1.3773 1.8172-2.1356.4535-.7676.7845-1.5459.973-2.107.0897-.2668.1649-.5378.1914-.7494.0069-.0554.0152-.1381.0107-.2307-.0023-.0517-.0139-.3116-.1967-.5509-.1218-.15916-.3243-.31358-.5992-.35592-.2499-.03832-.4489.03323-.5562.08585-.096.0471-.1722.10606-.229.15737l-.1109.1163c-.491.592-1.0358 1.0501-1.5292 1.2305-.2307.0843-.4264.0985-.5992.0626-.17-.0353-.3867-.1328-.6403-.3863-.148-.1479-.2387-.3899-.2111-.7727.0279-.3862.1744-.80795.3595-1.13394.2499-.43972.0963-1.00035-.3434-1.25022zm-7.5995-.49118c0-.00001-.00001 0 0 0zm2.8351 1.85129c.0009.00115-.0009-.00087 0 0z"/><path d="m6.12647 9.30605c.1807 1.60075.89585 3.13825 1.92989 4.64135.28683.4161.85706.5208 1.27348.2343.41618-.2867.52081-.8569.2343-1.2734-.93685-1.362-1.48376-2.6128-1.61867-3.80794-.08709-.77236-.01742-1.42201.21463-1.93526.22167-.49026.62451-.93018 1.35933-1.25201.18467-.08088.43862-.08527.64207-.00179.1801.07407.2568.18217.2755.31837.0431.31628-.0892.56727-.4257.87462-.12101.11048-.22739.19274-.3468.28507-.06303.04873-.12973.10031-.20409.16029-.08728.07041-.21007.17348-.3148.29333-.08367.09589-.30381.36358-.30406.75657 0 .21246.07228.4471.24504.64032.15598.17438.33639.25051.44894.28438.20345.0611.39081.0459.46324.03935.17753-.01605.38623-.06357.54733-.10195.0667-.0159.1343-.03236.2023-.04897.3153-.07685.644-.15699.9746-.20143.4276-.05747.6689-.02496.7673.01968.0017.00076.0069.00694.0093.00972.0028.00641.0083.01714.0106.02653.0078.03287.0176.09438.0176.17659-.0002.28092-.1524.59633-.5383.90323-.2899.2304-.6619.412-1.041.5205l-.3792.0823c-.4997.0759-.84447.543-.76906 1.0427.0665.4377.43296.7565.85856.778l.1842-.0089c.7872-.1196 1.6255-.457 2.2858-.9819.6602-.5251 1.2303-1.3176 1.2306-2.33593 0-.40786-.0822-.80197-.2862-1.14649-.2084-.35177-.5053-.58946-.8263-.73511-.3832-.17376-.8034-.21439-1.1859-.20748.1675-.38288.2643-.83689.1914-1.37184-.1222-.89604-.7226-1.48935-1.3933-1.76534-.6473-.2663-1.41919-.26925-2.07478.01788-1.1152.4885-1.86997 1.2395-2.29297 2.17493-.4125.91234-.47466 1.92274-.36488 2.89573z"/></g></svg>