<svg fill="none" height="28" viewBox="0 0 28 28" width="28" xmlns="http://www.w3.org/2000/svg"><path d="m6.80196 23.8746c-.2021-.0184-.44251-.0603-.6743-.1646l-.22715-.1252-.20211-.1645c-.18241-.1768-.31063-.3847-.40244-.5652-.12966-.255-.2331-.5495-.31837-.8568-.17084-.6157-.2962-1.3898-.38991-2.2411-.18813-1.7092-.25587-3.8547-.22894-5.9542.02697-2.1003.14853-4.1873.3452-5.7843.09774-.79365.21727-1.49775.36308-2.03006.07177-.26194.16102-.52351.27724-.74405.08565-.1625.31514-.56168.78698-.69397.58681-.16401 1.06182.11437 1.33607.37202.26633.2503.47142.58624.63316.90682.33084.65582.62183 1.54512.87105 2.45216.50273 1.82968.89761 3.96868 1.10178 5.01878.0965.4965-.22793.9766-.72439 1.0732-.4962.0964-.97628-.2266-1.07315-.7226-.21008-1.0806-.58977-3.1384-1.06958-4.88467-.1696-.61725-.34664-1.16651-.52048-1.60795-.05675.31168-.11414.67458-.16455 1.08389-.18618 1.51173-.30452 3.52963-.33089 5.58573-.02636 2.0567.03939 4.1205.21642 5.7289.08892.8077.20311 1.4715.33625 1.9513.06672.2405.13128.4093.18602.5169.00448.0089.01035.016.0143.0233.0075.0009.01626.0028.02504.0036.11902.0107.29761.0077.54374-.0197.49235-.0548 1.14742-.1972 1.9281-.4167 1.55477-.4372 3.49417-1.1498 5.39797-1.9568 1.9027-.8065 3.7408-1.6935 5.0975-2.4682.5361-.3062.9815-.5859 1.32-.8281-.1218-.0153-.2565-.0308-.4043-.043-1.0373-.0856-2.4528-.0676-3.9009-.0178-1.412.0485-2.8918.1285-3.9241.152-.5144.0117-.9813.0122-1.3111-.0197-.1316-.0127-.38-.04-.5974-.1449-.0927-.0447-.4083-.2105-.5276-.6063-.1381-.4589.0991-.803.2075-.9265 1.042-1.1869 3.2815-3.7676 5.262-6.05436.9896-1.14268 1.9147-2.21139 2.5917-2.9941.3383-.39114.6147-.71165.8066-.93365.0959-.11086.171-.19701.2218-.25577.025-.0289.0442-.05108.0572-.06617.0066-.00756.0128-.01406.0161-.01789.0015-.00164.0028-.00268.0036-.00358v-.00179c.3307-.38264.9105-.42551 1.2932-.09479.3825.33074.4236.91056.093 1.29315h-.0018c-.0008.00096-.002.00358-.0036.00537-.0033.00379-.0082.00904-.0143.01609-.0131.01514-.0318.03854-.0572.06797-.0508.05878-.126.14491-.2218.25577-.1921.22219-.4698.54214-.8085.93364-.6772.78299-1.6016 1.85271-2.5916 2.99589-1.4029 1.61982-2.9406 3.38892-4.0887 4.70762.9832-.0308 2.2196-.0927 3.5324-.1378 1.4472-.0497 2.9586-.0738 4.1138.0215.5669.0468 1.1197.1272 1.5507.279.2128.075.4683.1927.6814.3899.2368.2192.4346.556.4114.9838l-.0179.1484c-.0596.3316-.2457.5873-.372.7387-.1677.2009-.3817.3953-.6099.5759-.4602.3642-1.0859.7631-1.8011 1.1715-1.4378.8211-3.3458 1.7397-5.2925 2.5649-1.9459.8248-3.9618 1.5684-5.61613 2.0336-.82374.2316-1.58739.4034-2.22143.474-.3163.0352-.62745.0473-.91218.0215z" fill="#fff"/></svg>