<svg fill="none" height="28" viewBox="0 0 28 28" width="28" xmlns="http://www.w3.org/2000/svg"><path d="m21.198 4.12545c.2021.01836.4425.06021.6743.16455l.2272.1252.2021.16455c.1824.17672.3106.38466.4024.56519.1297.25498.2331.54949.3184.85674.1709.61569.2962 1.38986.3899 2.2411.1881 1.70923.2559 3.85472.229 5.95422-.027 2.1003-.1486 4.1873-.3452 5.7843-.0978.7936-.2173 1.4977-.3631 2.0301-.0718.2619-.161.5235-.2773.744-.0856.1625-.3151.5617-.7869.694-.5868.164-1.0619-.1144-1.3361-.372-.2663-.2503-.4714-.5863-.6332-.9069-.3308-.6558-.6218-1.5451-.871-2.4521-.5028-1.8297-.8976-3.9687-1.1018-5.0188-.0965-.4965.2279-.9766.7244-1.0732.4962-.0964.9763.2266 1.0731.7226.2101 1.0806.5898 3.1384 1.0696 4.8847.1696.6172.3467 1.1665.5205 1.6079.0567-.3117.1141-.6746.1646-1.0839.1861-1.5117.3045-3.5296.3308-5.5857.0264-2.0567-.0393-4.1205-.2164-5.7289-.0889-.80775-.2031-1.47154-.3362-1.95135-.0668-.24044-.1313-.40927-.186-.5169-.0045-.0088-.0104-.01596-.0144-.02325-.0074-.00086-.0162-.00278-.025-.00358-.119-.01074-.2976-.00771-.5437.01967-.4924.05479-1.1474.19723-1.9281.41675-1.5548.43718-3.4942 1.14977-5.398 1.95671-1.9027.80652-3.74078 1.69355-5.09748 2.46825-.53609.3062-.98155.5859-1.31998.8281.12172.0153.25643.0308.40422.043 1.03734.0856 2.45282.0676 3.90094.0178 1.412-.0485 2.8918-.1285 3.9241-.152.5144-.0117.9813-.0122 1.3111.0197.1316.0127.38.04.5974.1449.0927.0447.4083.2105.5276.6063.1381.4589-.0991.803-.2075.9265-1.042 1.1869-3.2815 3.7676-5.262 6.0544-.9896 1.1426-1.9147 2.2114-2.59167 2.9941-.3383.3911-.61472.7116-.80665.9336-.09585.1109-.171.197-.22179.2558-.02498.0289-.04418.0511-.05723.0662-.00653.0075-.01279.014-.0161.0178-.00142.0017-.0028.0027-.00358.0036v.0018c-.33071.3827-.9105.4255-1.29315.0948-.38249-.3307-.42367-.9106-.09301-1.2932h.00179c.00083-.0009.00204-.0035.00358-.0053.00328-.0038.00822-.0091.01431-.0161.01308-.0151.0318-.0386.05723-.068.05082-.0588.12595-.1449.22179-.2557.19209-.2222.46983-.5422.80844-.9337.67723-.783 1.60161-1.8527 2.59164-2.9959 1.4029-1.6198 2.9406-3.3889 4.0887-4.7076-.9832.0308-2.2196.0927-3.5324.1378-1.44724.0497-2.95862.0738-4.11378-.0215-.56692-.0468-1.11973-.1272-1.5507-.279-.21278-.075-.46836-.1927-.68146-.3899-.2368-.2192-.43461-.556-.41137-.9838l.01788-.1484c.05964-.3316.24569-.5873.37203-.7387.16772-.2009.38173-.3953.60991-.5759.46016-.3642 1.08593-.76313 1.80111-1.17155 1.43774-.82104 3.34578-1.7397 5.29248-2.56484 1.9459-.82479 3.9618-1.56843 5.6161-2.03362.8238-.23161 1.5874-.40342 2.2215-.47398.3163-.03517.6274-.04734.9121-.02146z" fill="#fff"/></svg>