<svg fill="none" height="28" viewBox="0 0 28 28" width="28" xmlns="http://www.w3.org/2000/svg"><g fill="#fff"><path clip-rule="evenodd" d="m6.59454 23.822c.00127-.0015.00418-.0054.00714-.0093-.00052.0007.00053-.0007 0 0-.00111.0013.00138-.0018 0 0" fill-rule="evenodd"/><path d="m5.20025 22.6341c-.32623.3864-.28176.9708.10472 1.297.38623.3254.96343.2765 1.28957-.1091.00264-.0035.00489-.0066.00714-.0093l.04294-.0515c.01421-.0168.03158-.0371.0517-.0606.02659-.0311.05798-.0677.09318-.1093.12352-.1461.30022-.3549.51333-.6064l.09008-.1063c.41626-.4912.95127-1.1226 1.4964-1.761.58561-.6858 1.18259-1.3796 1.65449-1.9209.1461-.1676.2801-.3189.397-.4507.3162.2161.7429.4997 1.2556.778 1.1717.6361 2.8555 1.2917 4.8006 1.1018 2.837-.2773 4.8419-2.2948 5.634-4.8203.7916-2.5237.4046-5.6061-1.5077-8.22391-2.4126-3.30263-6.7562-4.53939-10.0752-3.19085-2.21137.89876-3.56218 2.76989-4.08511 4.82383-.48683 1.91313-.27353 4.03813.65463 5.80933l.19674.3506.10911.1484c.28657.3152.76429.3959 1.1447.1699.38056-.2263.5374-.6849.39706-1.0874l-.07691-.1681-.14845-.2648c-.70717-1.3505-.88238-3.0085-.50081-4.5072.40372-1.58519 1.41074-2.93205 2.99764-3.57718 2.4824-1.00889 5.9526-.10211 7.9074 2.57378 1.5731 2.1534 1.8548 4.6319 1.2395 6.5945-.615 1.9608-2.0922 3.3541-4.0655 3.5468-1.4342.14-2.7385-.3404-3.7489-.8889-.5005-.2718-.913-.55-1.2251-.7655-.0366-.0253-.0736-.0511-.1105-.0768-.1093-.0763-.217-.1514-.3045-.2058-.0541-.0337-.1478-.0881-.2522-.1306-.0494-.0201-.1535-.0596-.2879-.0733-.1096-.0112-.3572-.0169-.6028.1395l-.1037.0769c-.1053.0892-.26486.2638-.40605.4203-.16436.1821-.37477.422-.61349.6958-.47819.5484-1.08015 1.248-1.66697 1.9352-.58704.6875-1.16187 1.3656-1.59005 1.8709l-.08108.0957c-.17765.2096-.32616.3848-.43404.5124-.0352.0416-.06648.0782-.09302.1091-.02008.0235-.03758.0439-.05185.0608l-.03756.0447c-.00245.0029-.00555.007-.00814.0105z"/></g></svg>