<svg width="28" height="28" viewBox="0 0 28 28" fill="none" xmlns="http://www.w3.org/2000/svg">
<path d="M20.6391 13.7949C20.6391 13.7327 20.597 13.5146 20.3432 13.1152C20.1041 12.7389 19.7372 12.295 19.2543 11.8066C18.2908 10.8319 16.9486 9.76483 15.4868 8.80952C14.0243 7.85385 12.4819 7.03665 11.1303 6.53804C10.4546 6.28878 9.85223 6.12792 9.34711 6.06245C8.83126 5.99563 8.49003 6.03706 8.28852 6.11421C8.323 6.10082 8.23861 6.11847 8.09907 6.38081C7.96473 6.63342 7.83534 7.01111 7.72504 7.51753C7.50532 8.52645 7.40083 9.85367 7.37055 11.249C7.31027 14.028 7.54571 16.878 7.61176 17.5253C7.66759 18.0746 7.26751 18.565 6.71821 18.621C6.16894 18.6769 5.67855 18.2768 5.6225 17.7275C5.55169 17.0333 5.30787 14.0961 5.37055 11.206C5.40177 9.76658 5.5103 8.28842 5.77094 7.09175C5.90081 6.49547 6.07865 5.92034 6.33344 5.44136C6.58238 4.97337 6.96826 4.4785 7.57172 4.24702C8.20278 4.00496 8.91523 3.98984 9.60395 4.07905C10.3035 4.1697 11.0575 4.37882 11.8227 4.66108C13.3539 5.22596 15.0319 6.12372 16.5805 7.13569C18.1295 8.1479 19.5897 9.30139 20.6762 10.4003C21.2182 10.9486 21.6892 11.5046 22.0307 12.0419C22.3574 12.5561 22.6391 13.1661 22.6391 13.7949C22.639 14.8908 21.9284 15.9225 21.1635 16.7548C20.3554 17.6342 19.2798 18.509 18.1694 19.3066C15.9432 20.9054 13.4333 22.2929 12.2407 22.8964C11.6407 23.2 11.0382 23.4756 10.4643 23.6699C9.89914 23.8612 9.29711 23.9967 8.7143 23.9667C8.10237 23.9352 7.49515 23.7178 7.02192 23.205C6.57142 22.7169 6.33472 22.0603 6.22895 21.3261C6.15027 20.7795 6.53001 20.273 7.07661 20.1943C7.6232 20.1156 8.12964 20.4944 8.20844 21.041C8.2818 21.5501 8.41519 21.7657 8.49164 21.8486C8.54528 21.9067 8.62301 21.9597 8.81782 21.9697C9.04172 21.9811 9.36957 21.9287 9.8227 21.7753C10.2677 21.6247 10.7744 21.3971 11.3373 21.1123C12.471 20.5386 14.8861 19.2032 17.0034 17.6826C18.0646 16.9204 19.0155 16.1363 19.6909 15.4013C20.4094 14.6194 20.639 14.0807 20.6391 13.7949Z" fill="white"/>
</svg>
