<svg width="28" height="28" viewBox="0 0 28 28" fill="none" xmlns="http://www.w3.org/2000/svg">
<path d="M17.134 20.5C17.6863 20.5 18.134 20.9477 18.134 21.5C18.134 22.0523 17.6863 22.5 17.134 22.5H11.134C10.5817 22.5 10.134 22.0523 10.134 21.5C10.134 20.9477 10.5817 20.5 11.134 20.5H17.134ZM17 11.9297C17.5523 11.9297 18 12.3774 18 12.9297C17.9999 13.4819 17.5522 13.9297 17 13.9297H11C10.4478 13.9297 10.0001 13.4819 10 12.9297C10 12.3774 10.4477 11.9297 11 11.9297H17ZM17 6C17.5523 6 18 6.44772 18 7C18 7.55228 17.5523 8 17 8H11C10.4477 8 10 7.55228 10 7C10 6.44772 10.4477 6 11 6H17Z" fill="white"/>
</svg>
