<svg width="28" height="28" viewBox="0 0 28 28" fill="none" xmlns="http://www.w3.org/2000/svg">
<path d="M14 8C14.5523 8 15 8.44772 15 9C15 9.55228 14.5523 10 14 10C13.4477 10 13 9.55228 13 9C13 8.44772 13.4477 8 14 8Z" fill="white"/>
<path d="M14 12C14.8284 12 15.5 12.6716 15.5 13.5C15.5 14.3284 14.8284 15 14 15C13.1716 15 12.5 14.3284 12.5 13.5C12.5 12.6716 13.1716 12 14 12Z" fill="white"/>
<path d="M16 19C16 20.1046 15.1046 21 14 21C12.8954 21 12 20.1046 12 19C12 17.8954 12.8954 17 14 17C15.1046 17 16 17.8954 16 19Z" fill="white"/>
</svg>
