<svg fill="none" height="28" viewBox="0 0 28 28" width="28" xmlns="http://www.w3.org/2000/svg"><g fill="#fff"><path clip-rule="evenodd" d="m13.0079 4.09446c.3852.09383.6654.42648.6955.82181l.8327 11.07923-.001.0052s.0017.0092.0023.0151c.001.0129.0027.033.0045.0576.0038.0502.008.1251.015.2186.014.1883.0351.4586.0591.7813.0481.6467.1119 1.5115.176 2.3764.0641.8646.1275 1.7327.1756 2.3872.024.3265.0456.6014.0597.796.007.0966.0125.1751.0163.2298.0015.021.0069.1049.007.1513 0 .5057-.4096.9171-.9153.9172-.4421-.0003-.8113-.315-.8967-.732l-.0184-.1846-.004-.0246c-.0037-.0525-.0105-.1289-.0174-.2246-.014-.1935-.0322-.4688-.0562-.7953-.048-.6539-.1136-1.5215-.1777-2.3858-.0641-.8645-.1283-1.7281-.1764-2.3747-.0067-.0907-.0132-.1781-.0192-.2597l-6.13785-.2181c-.04161.0646-.08663.1359-.13512.2113-.25038.3894-.58494.9101-.91815 1.4335-.33373.5242-.66526 1.0499-.91231 1.4494-.12394.2004-.22408.3641-.29097.4786-.03396.058-.05405.0958-.06394.1146.00162-.0034.00406-.0089.00677-.0151l.00182-.0087c-.12938.3256-.43789.5636-.81048.5791-.50507.0203-.93156-.3736-.95221-.8787-.0069-.1748.03892-.3115.04402-.327.01428-.044.03044-.0803.03893-.0997.01781-.0406.03738-.0788.05089-.1045.02879-.0546.06585-.1195.10406-.1848.07856-.1344.18781-.3141.3137-.5177.25347-.4099.58909-.9434.92366-1.469.33523-.5265.67185-1.049.92311-1.4398.1256-.1953.23093-.3584.30426-.4721.03645-.0566.06443-.102.08406-.1324.00748-.0116.01405-.0216.01879-.029l6.64896-10.8145.0868-.11902c.2214-.25645.5727-.37334.9098-.29182zm-8.67548 16.26524c.00303-.0081.00789-.0172.01106-.027.00194-.006.01444-.0461.02565-.1061-.00849.0457-.02168.09-.03671.1331zm3.41227-5.4211 4.88651.1744-.542-7.23792z" fill-rule="evenodd"/><path d="m19.7101 9.4926c.9612-.32722 1.9866-.40813 3.2052-.00179 1.3566.45254 2.8173 1.96849 2.4789 4.22999-.3214 2.148-.7649 3.4433-1.3253 5.0975-.1075.3519-.2045.6453-.2611.8049-.0141.0396-.0277.0771-.0394.1073-.0042.011-.0166.0396-.0304.0697-.004.0088-.0103.0248-.0197.043-.0061.0118-.0293.0552-.0644.1055-.0153.0219-.0595.0847-.1305.1502-.0362.0334-.1062.0919-.2075.1431-.1003.0507-.2903.1233-.533.0912-.579-.0764-.7396-.5806-.7619-.6599-.0368-.1307-.0345-.239-.034-.2665.0014-.0749.0122-.1332.0143-.1449.004-.0223.0084-.0402.0107-.0501.0048-.0203.01-.0373.0125-.0465l.0018-.0107c-.0157.0045-.0307.0117-.0465.0161-.7926.2179-1.5654.1358-2.2804-.034-.6166-.1465-1.261-.4122-1.7582-.8943-.5239-.5081-.8224-1.1969-.8085-2.0319.0396-2.3283 2.3439-3.5921 4.3982-3.1854.6981.1382 1.4052.5716 1.9442 1.0856.0374-.2106.0746-.431.1091-.6617.1841-1.2334-.5857-2.0004-1.2484-2.2215-.8002-.2667-1.4131-.2136-2.0355-.0018-.4786.1627-.9978-.0937-1.1608-.5723-.1626-.4785.0924-.99759.5706-1.1608zm1.4649 5.3282c-1.2609-.2494-2.1959.5436-2.2107 1.4201-.0059.3448.1027.5419.2521.6869.1762.1706.4731.3244.9069.4274.5648.1342.9939.1534 1.37.0501.3597-.0989.7716-.3389 1.2502-.9068.0058-.0461.0148-.0893.0179-.1306.0106-.1404-.0922-.4714-.4829-.8692-.3725-.3792-.8172-.6212-1.1035-.6779z"/></g></svg>